<svg width="73" height="74" viewBox="0 0 73 74" fill="none" xmlns="http://www.w3.org/2000/svg">
<path fill-rule="evenodd" clip-rule="evenodd" d="M48.5862 5.7562L31.9075 15.7173L51.4773 18.3759L67.5691 8.34256L48.5862 5.7562ZM52.3923 35.3996C63.0561 35.3996 71.7019 44.0401 71.7019 54.7005C71.7019 65.3595 63.0561 74 52.3923 74C41.7285 74 33.0842 65.3595 33.0842 54.7005C33.0842 44.0401 41.7285 35.3996 52.3923 35.3996ZM49.0502 47.9601C49.0502 46.3765 50.3353 45.092 51.9196 45.092C53.5054 45.092 54.7905 46.3765 54.7905 47.9601V55.6166L59.0996 56.9763C60.6102 57.4531 61.4472 59.0641 60.9716 60.574C60.4946 62.084 58.8828 62.9205 57.3722 62.4452L51.1636 60.4845C49.945 60.1521 49.0502 59.0396 49.0502 57.7175V47.9601ZM29.6091 18.2242L29.5961 38.6998L22.1588 33.6369L14.72 37.8372L15.6018 16.3213L2.80291 14.5831V59.8054L28.6709 63.1474C29.0352 64.1733 29.4616 65.1688 29.9502 66.1282L1.34436 62.4307C0.59701 62.4004 0 61.7834 0 61.0306V12.9836C0.0390297 12.3984 0.273208 11.988 0.826851 11.7106L26.3769 0.122559C26.6052 0.0185265 26.8871 -0.0233754 27.1372 0.0127469L71.686 6.08564C72.4218 6.17089 72.9263 6.77485 72.9263 7.52909V7.53198L73 40.5868C72.1731 39.3644 70.7493 37.6551 70.119 36.5743V10.0504L53.3782 20.877V29.5189C52.4436 29.4843 51.5079 29.5017 50.5753 29.5709V21.0721L29.6091 18.2242ZM17.825 13.8057L34.0397 3.77236L27.1618 2.83463L6.39509 12.2524L17.825 13.8057Z" fill="url(#paint0_linear_148_172)"/>
<defs>
<linearGradient id="paint0_linear_148_172" x1="-0.29918" y1="1.08823" x2="81.8202" y2="7.03861" gradientUnits="userSpaceOnUse">
<stop stop-color="#0081F9"/>
<stop offset="1" stop-color="#C76AF2"/>
</linearGradient>
</defs>
</svg>
