<svg width="14" height="14" viewBox="0 0 14 14" fill="none" xmlns="http://www.w3.org/2000/svg">
<path d="M13.761 5.70558C13.8273 5.36494 13.5621 4.95618 13.2306 4.95618L9.45118 4.41116L7.72725 0.868538C7.66094 0.732283 7.59464 0.664156 7.46203 0.596028C7.1305 0.391646 6.73267 0.527901 6.53376 0.868538L4.87613 4.41116L1.09675 4.95618C0.89783 4.95618 0.76522 5.02431 0.698915 5.16056C0.433695 5.43307 0.433695 5.84184 0.698915 6.11434L3.41742 8.83944L2.75437 12.7227C2.75437 12.859 2.75437 12.9952 2.82068 13.1315C3.01959 13.4721 3.41742 13.6084 3.74895 13.404L7.1305 11.5645L10.5121 13.404C10.5784 13.4721 10.711 13.4721 10.8436 13.4721C10.9099 13.4721 10.9099 13.4721 10.9762 13.4721C11.3077 13.404 11.5729 13.0633 11.5066 12.6546L10.8436 8.77131L13.5621 6.04622C13.6947 5.97809 13.761 5.84184 13.761 5.70558Z" fill="url(#paint0_radial_61_110)"/>
<defs>
<radialGradient id="paint0_radial_61_110" cx="0" cy="0" r="1" gradientUnits="userSpaceOnUse" gradientTransform="translate(7.1305 7.31274) rotate(89.9526) scale(6.18727 6.31636)">
<stop stop-color="#F9EF00"/>
<stop offset="1" stop-color="#F99500"/>
</radialGradient>
</defs>
</svg>
