<svg width="69" height="70" viewBox="0 0 69 70" fill="none" xmlns="http://www.w3.org/2000/svg">
<g clip-path="url(#clip0_61_91)">
<path fill-rule="evenodd" clip-rule="evenodd" d="M42.1363 13.7642C42.1363 17.9816 38.7175 21.4005 34.5001 21.4005C30.2827 21.4005 26.8638 17.9816 26.8638 13.7642C26.8638 9.54681 30.2827 6.12793 34.5001 6.12793C38.7175 6.12793 42.1363 9.54681 42.1363 13.7642ZM20.9973 37.2594C20.9973 31.6211 25.0818 27.0548 30.1388 27.0548C30.1664 27.0548 30.1888 27.0324 30.1888 27.0048C30.1888 26.9771 30.1664 26.9548 30.1388 26.9548C25.0164 26.9548 20.8973 31.5766 20.8973 37.2594C20.8973 37.287 20.9197 37.3094 20.9473 37.3094C20.9749 37.3094 20.9973 37.287 20.9973 37.2594ZM38.136 27.3964C38.136 27.3687 38.1584 27.3464 38.186 27.3464C43.9553 27.3464 48.05 32.4691 48.05 39.4663C48.05 39.494 48.0276 39.5163 48 39.5163C47.9724 39.5163 47.95 39.494 47.95 39.4663C47.95 32.5036 43.8814 27.4464 38.186 27.4464C38.1584 27.4464 38.136 27.424 38.136 27.3964ZM19.0554 42.8847L19.0332 42.8778L19.0136 42.8904L11.2269 47.8947C11.2036 47.9096 11.1969 47.9405 11.2118 47.9638C11.2268 47.987 11.2577 47.9937 11.2809 47.9788L19.048 42.9871L34.4077 47.7657L34.409 47.7661C35.763 48.1457 36.4799 48.833 36.8184 49.5501C37.1577 50.2689 37.1201 51.0244 36.9526 51.5443C36.7848 52.0339 36.4867 52.4647 35.9385 52.7002C35.3879 52.9368 34.5767 52.9801 33.3752 52.6738L33.3753 52.6735L33.3698 52.6727L25.0069 51.5105C24.9795 51.5067 24.9543 51.5258 24.9505 51.5532C24.9467 51.5805 24.9658 51.6058 24.9931 51.6096L33.3532 52.7714C34.5636 53.0796 35.3992 53.0408 35.978 52.7921C36.5594 52.5423 36.8732 52.0845 37.0473 51.5762L37.0476 51.5754C37.2217 51.0356 37.2608 50.2531 36.9088 49.5074C36.556 48.76 35.8134 48.0561 34.4367 47.67L34.436 47.6698L19.0554 42.8847ZM55.518 46.0466C56.6259 45.6192 57.7067 45.4109 58.595 45.4774C59.483 45.5438 60.1706 45.8836 60.5101 46.5443C61.1174 47.7457 60.5121 49.6898 58.7857 50.5479L58.7856 50.5477L58.7813 50.5504L57.6977 51.2341L57.6977 51.2341L37.8416 63.8L20.1139 57.3138L20.0927 57.3061L20.0729 57.3168L17.9761 58.456C17.9519 58.4692 17.9429 58.4996 17.9561 58.5239C17.9692 58.5481 17.9996 58.5571 18.0239 58.5439L20.1008 57.4155L37.8303 63.9023L37.8535 63.9108L37.8743 63.8976L57.7511 51.3186L57.7512 51.3186L58.8325 50.6364C60.5978 49.7575 61.2359 47.7582 60.5993 46.4991L60.5992 46.4988C60.238 45.7957 59.5104 45.4456 58.6025 45.3776C57.6948 45.3097 56.5987 45.5225 55.4823 45.9532L55.482 45.9533L43.002 50.5595C42.9761 50.569 42.9628 50.5978 42.9724 50.6237C42.9819 50.6496 43.0107 50.6629 43.0366 50.6533L55.5173 46.0469L55.518 46.0466ZM8.5 62L2 51.5512L9.7282 46L22 65.4488L14.2718 71L8.5 62Z" fill="url(#paint0_linear_61_91)"/>
<path d="M19.0332 42.8778L19.6273 40.9681L18.7366 40.691L17.9519 41.1953L19.0332 42.8778ZM19.0554 42.8847L19.6496 40.975L19.6495 40.975L19.0554 42.8847ZM19.0136 42.8904L17.9323 41.2079L17.9323 41.2079L19.0136 42.8904ZM11.2269 47.8947L10.1456 46.2122L10.1455 46.2122L11.2269 47.8947ZM11.2118 47.9638L9.5293 49.045L9.52941 49.0452L11.2118 47.9638ZM11.2809 47.9788L12.3621 49.6614L12.3622 49.6613L11.2809 47.9788ZM19.048 42.9871L19.6421 41.0774L18.7514 40.8003L17.9667 41.3046L19.048 42.9871ZM34.4077 47.7657L33.8135 49.6754L33.8415 49.6841L33.8696 49.692L34.4077 47.7657ZM34.409 47.7661L34.9489 45.8404L34.9471 45.8399L34.409 47.7661ZM36.8184 49.5501L38.627 48.6964V48.6964L36.8184 49.5501ZM36.9526 51.5443L38.8446 52.1925L38.8505 52.1753L38.8561 52.1579L36.9526 51.5443ZM35.9385 52.7002L35.149 50.8626V50.8626L35.9385 52.7002ZM33.3752 52.6738L31.4394 52.1714L30.9349 54.1156L32.8811 54.6118L33.3752 52.6738ZM33.3753 52.6735L35.3112 53.1758L35.8754 51.0015L33.6504 50.6925L33.3753 52.6735ZM33.3698 52.6727L33.0945 54.6537L33.0947 54.6537L33.3698 52.6727ZM25.0069 51.5105L24.7314 53.4915L24.7316 53.4915L25.0069 51.5105ZM24.9931 51.6096L25.2684 49.6286L25.2683 49.6286L24.9931 51.6096ZM33.3532 52.7714L33.8468 50.8332L33.7389 50.8057L33.6285 50.7904L33.3532 52.7714ZM35.978 52.7921L36.7674 54.6297L36.7675 54.6297L35.978 52.7921ZM37.0473 51.5762L38.9394 52.2242L38.9425 52.2152L38.9455 52.2061L37.0473 51.5762ZM37.0476 51.5754L38.9458 52.2053L38.9484 52.1974L38.951 52.1894L37.0476 51.5754ZM36.9088 49.5074L38.7175 48.6537H38.7175L36.9088 49.5074ZM34.4367 47.67L33.8958 49.5955L33.8966 49.5957L34.4367 47.67ZM34.436 47.6698L33.8419 49.5795L33.8684 49.5878L33.8952 49.5953L34.436 47.6698ZM58.595 45.4774L58.7443 43.4829H58.7443L58.595 45.4774ZM55.518 46.0466L56.2248 47.9176L56.238 47.9126L55.518 46.0466ZM60.5101 46.5443L62.2951 45.642L62.2889 45.6301L60.5101 46.5443ZM58.7857 50.5479L56.9969 51.4424L57.8892 53.227L59.676 52.3389L58.7857 50.5479ZM58.7856 50.5477L60.5745 49.6533L59.5872 47.6787L57.7194 48.8556L58.7856 50.5477ZM58.7813 50.5504L57.7151 48.8583L57.7141 48.8589L58.7813 50.5504ZM57.6977 51.2341L56.6306 49.5426L56.6093 49.556L56.5883 49.57L57.6977 51.2341ZM57.6977 51.2341L58.7672 52.9241L58.7873 52.9114L58.8071 52.8982L57.6977 51.2341ZM37.8416 63.8L37.1544 65.6782L38.0791 66.0165L38.9111 65.49L37.8416 63.8ZM20.1139 57.3138L20.8011 55.4356L20.8011 55.4356L20.1139 57.3138ZM20.0927 57.3061L20.7799 55.4278L19.9316 55.1175L19.1379 55.5487L20.0927 57.3061ZM20.0729 57.3168L19.1181 55.5595L19.1181 55.5595L20.0729 57.3168ZM17.9761 58.456L17.0213 56.6987L17.0213 56.6987L17.9761 58.456ZM17.9561 58.5239L19.7135 57.5691L19.7134 57.5691L17.9561 58.5239ZM18.0239 58.5439L17.0691 56.7865L17.069 56.7866L18.0239 58.5439ZM20.1008 57.4155L20.788 55.5373L19.9397 55.2269L19.146 55.6581L20.1008 57.4155ZM37.8303 63.9023L37.1431 65.7806L37.1432 65.7806L37.8303 63.9023ZM37.8535 63.9108L37.1663 65.789L38.0911 66.1274L38.9231 65.6007L37.8535 63.9108ZM37.8743 63.8976L36.8047 62.2076L36.8046 62.2077L37.8743 63.8976ZM57.7511 51.3186L58.8206 53.0087L58.8407 52.9959L58.8605 52.9827L57.7511 51.3186ZM57.7512 51.3186L56.684 49.6271L56.6627 49.6406L56.6418 49.6545L57.7512 51.3186ZM58.8325 50.6364L57.9411 48.846L57.8507 48.891L57.7654 48.9449L58.8325 50.6364ZM60.5993 46.4991L62.3842 45.5967L62.3768 45.5821L62.3692 45.5676L60.5993 46.4991ZM60.5992 46.4988L58.8202 47.4128L58.8247 47.4215L58.8293 47.4303L60.5992 46.4988ZM58.6025 45.3776L58.7517 43.3832H58.7517L58.6025 45.3776ZM55.4823 45.9532L56.1961 47.8215L56.2022 47.8192L55.4823 45.9532ZM55.482 45.9533L56.1745 47.8296L56.1851 47.8257L56.1957 47.8217L55.482 45.9533ZM43.002 50.5595L43.6944 52.4358L43.6945 52.4358L43.002 50.5595ZM42.9724 50.6237L41.0961 51.3163L41.0961 51.3163L42.9724 50.6237ZM43.0366 50.6533L43.729 52.5296L43.7291 52.5296L43.0366 50.6533ZM55.5173 46.0469L56.2098 47.9232L56.217 47.9205L56.2241 47.9178L55.5173 46.0469ZM2 51.5512L0.833207 49.9268L-0.686727 51.0186L0.301779 52.6076L2 51.5512ZM8.5 62L6.80178 63.0564L6.80904 63.0681L6.81646 63.0797L8.5 62ZM9.7282 46L11.4196 44.9327L10.2863 43.1366L8.56141 44.3756L9.7282 46ZM22 65.4488L23.1668 67.0732L24.6965 65.9744L23.6914 64.3815L22 65.4488ZM14.2718 71L12.5883 72.0797L13.7263 73.8543L15.4386 72.6244L14.2718 71ZM34.5001 23.4005C39.822 23.4005 44.1363 19.0862 44.1363 13.7642H40.1363C40.1363 16.877 37.6129 19.4005 34.5001 19.4005V23.4005ZM24.8638 13.7642C24.8638 19.0862 29.1781 23.4005 34.5001 23.4005V19.4005C31.3872 19.4005 28.8638 16.877 28.8638 13.7642H24.8638ZM34.5001 4.12793C29.1781 4.12793 24.8638 8.44224 24.8638 13.7642H28.8638C28.8638 10.6514 31.3872 8.12793 34.5001 8.12793V4.12793ZM44.1363 13.7642C44.1363 8.44224 39.822 4.12793 34.5001 4.12793V8.12793C37.6129 8.12793 40.1363 10.6514 40.1363 13.7642H44.1363ZM30.1388 25.0548C23.7752 25.0548 18.9973 30.73 18.9973 37.2594H22.9973C22.9973 32.5122 26.3884 29.0548 30.1388 29.0548V25.0548ZM28.1888 27.0048C28.1888 25.9277 29.062 25.0548 30.1388 25.0548V29.0548C31.2709 29.0548 32.1888 28.137 32.1888 27.0048H28.1888ZM30.1388 28.9548C29.062 28.9548 28.1888 28.0818 28.1888 27.0048H32.1888C32.1888 25.8725 31.2709 24.9548 30.1388 24.9548V28.9548ZM22.8973 37.2594C22.8973 32.467 26.3237 28.9548 30.1388 28.9548V24.9548C23.7092 24.9548 18.8973 30.6862 18.8973 37.2594H22.8973ZM20.9473 35.3094C22.0243 35.3094 22.8973 36.1825 22.8973 37.2594H18.8973C18.8973 38.3915 19.815 39.3094 20.9473 39.3094V35.3094ZM18.9973 37.2594C18.9973 36.1825 19.8702 35.3094 20.9473 35.3094V39.3094C22.0795 39.3094 22.9973 38.3915 22.9973 37.2594H18.9973ZM38.186 25.3464C37.0539 25.3464 36.136 26.2642 36.136 27.3964H40.136C40.136 28.4733 39.263 29.3464 38.186 29.3464V25.3464ZM50.05 39.4663C50.05 31.78 45.4339 25.3464 38.186 25.3464V29.3464C42.4767 29.3464 46.05 33.1582 46.05 39.4663H50.05ZM48 41.5163C49.1322 41.5163 50.05 40.5985 50.05 39.4663H46.05C46.05 38.3894 46.923 37.5163 48 37.5163V41.5163ZM45.95 39.4663C45.95 40.5985 46.8678 41.5163 48 41.5163V37.5163C49.077 37.5163 49.95 38.3894 49.95 39.4663H45.95ZM38.186 29.4464C42.4037 29.4464 45.95 33.1938 45.95 39.4663H49.95C49.95 31.8133 45.3591 25.4464 38.186 25.4464V29.4464ZM36.136 27.3964C36.136 28.5285 37.0539 29.4464 38.186 29.4464V25.4464C39.263 25.4464 40.136 26.3194 40.136 27.3964H36.136ZM18.4391 44.7875L18.4613 44.7945L19.6495 40.975L19.6273 40.9681L18.4391 44.7875ZM20.0948 44.573L20.1144 44.5603L17.9519 41.1953L17.9323 41.2079L20.0948 44.573ZM12.3082 49.5772L20.0948 44.5729L17.9323 41.2079L10.1456 46.2122L12.3082 49.5772ZM12.8944 46.8825C13.4766 47.7885 13.2141 48.9949 12.3082 49.5771L10.1455 46.2122C9.19315 46.8243 8.91725 48.0926 9.5293 49.045L12.8944 46.8825ZM10.1998 46.2962C11.1057 45.7141 12.312 45.9765 12.8943 46.8824L9.52941 49.0452C10.1415 49.9975 11.4097 50.2733 12.3621 49.6614L10.1998 46.2962ZM17.9667 41.3046L10.1996 46.2963L12.3622 49.6613L20.1293 44.6696L17.9667 41.3046ZM35.0018 45.856L19.6421 41.0774L18.4539 44.8969L33.8135 49.6754L35.0018 45.856ZM34.9471 45.8399L34.9457 45.8395L33.8696 49.692L33.871 49.6924L34.9471 45.8399ZM38.627 48.6964C38.0016 47.3715 36.7659 46.3497 34.9489 45.8404L33.8692 49.6919C34.3319 49.8216 34.6017 49.9799 34.7543 50.1005C34.9023 50.2175 34.9719 50.3236 35.0098 50.4039L38.627 48.6964ZM38.8561 52.1579C39.1526 51.2381 39.2179 49.9482 38.627 48.6964L35.0098 50.4039C35.0509 50.491 35.0732 50.5886 35.0768 50.692C35.0806 50.8009 35.0626 50.8885 35.049 50.9306L38.8561 52.1579ZM36.728 54.5378C37.9371 54.0183 38.5506 53.0505 38.8446 52.1925L35.0605 50.896C35.0349 50.9708 35.0224 50.9727 35.0469 50.943C35.0597 50.9275 35.078 50.9091 35.1007 50.892C35.1235 50.8748 35.1417 50.8658 35.149 50.8626L36.728 54.5378ZM32.8811 54.6118C34.2892 54.9708 35.6037 55.0208 36.728 54.5378L35.149 50.8626C35.1722 50.8527 34.8642 50.9894 33.8694 50.7358L32.8811 54.6118ZM31.4394 52.1711L31.4394 52.1714L35.3111 53.1761L35.3112 53.1758L31.4394 52.1711ZM33.0947 54.6537L33.1002 54.6545L33.6504 50.6925L33.6449 50.6917L33.0947 54.6537ZM24.7316 53.4915L33.0945 54.6537L33.6451 50.6917L25.2822 49.5296L24.7316 53.4915ZM26.9314 51.8285C26.7832 52.895 25.7984 53.6398 24.7314 53.4915L25.2823 49.5296C24.1607 49.3736 23.1254 50.1566 22.9695 51.2778L26.9314 51.8285ZM25.2683 49.6286C26.335 49.7768 27.0797 50.7617 26.9314 51.8285L22.9695 51.2778C22.8136 52.3993 23.5965 53.4348 24.7179 53.5905L25.2683 49.6286ZM33.6285 50.7904L25.2684 49.6286L24.7178 53.5905L33.0779 54.7523L33.6285 50.7904ZM35.1885 50.9545C35.183 50.9569 34.8505 51.0888 33.8468 50.8332L32.8597 54.7095C34.2767 55.0704 35.6153 55.1247 36.7674 54.6297L35.1885 50.9545ZM35.1552 50.9283C35.1413 50.9687 35.1298 50.9932 35.1232 51.0056C35.1169 51.0174 35.1163 51.0161 35.1237 51.007C35.1318 50.9973 35.1445 50.9843 35.1609 50.972C35.1685 50.9662 35.1754 50.9617 35.1809 50.9586C35.1864 50.9554 35.1892 50.9542 35.1885 50.9545L36.7675 54.6297C38.0104 54.0957 38.6394 53.1002 38.9394 52.2242L35.1552 50.9283ZM35.1494 50.9455L35.1491 50.9463L38.9455 52.2061L38.9458 52.2053L35.1494 50.9455ZM35.1002 50.3612C35.1478 50.462 35.1727 50.5729 35.1767 50.6885C35.181 50.8095 35.1611 50.9088 35.1442 50.9614L38.951 52.1894C39.2541 51.2497 39.3212 49.9326 38.7175 48.6537L35.1002 50.3612ZM33.8966 49.5957C34.3702 49.7285 34.6524 49.8925 34.8165 50.0222C34.9762 50.1485 35.0555 50.2665 35.1002 50.3612L38.7175 48.6537C38.0777 47.2985 36.8162 46.2602 34.9768 45.7443L33.8966 49.5957ZM33.8952 49.5953L33.8958 49.5955L34.9776 45.7445L34.9769 45.7444L33.8952 49.5953ZM18.4613 44.7944L33.8419 49.5795L35.0302 45.7601L19.6496 40.975L18.4613 44.7944ZM58.7443 43.4829C57.4653 43.3872 56.0772 43.6871 54.798 44.1807L56.238 47.9126C57.1746 47.5512 57.9482 47.4346 58.4457 47.4718L58.7443 43.4829ZM62.2889 45.6301C61.5158 44.1258 60.0308 43.5792 58.7443 43.4829L58.4457 47.4718C58.6849 47.4897 58.7889 47.5375 58.8073 47.5475C58.8135 47.5508 58.8005 47.5446 58.7799 47.524C58.7584 47.5025 58.7415 47.4784 58.7313 47.4585L62.2889 45.6301ZM59.676 52.3389C62.2134 51.0776 63.4904 48.0068 62.295 45.642L58.7252 47.4465C58.7184 47.4331 58.7921 47.6103 58.6608 47.9454C58.5425 48.2475 58.2946 48.5586 57.8955 48.757L59.676 52.3389ZM56.9968 51.4421L56.9969 51.4424L60.5746 49.6535L60.5745 49.6533L56.9968 51.4421ZM59.8475 52.2425L59.8518 52.2398L57.7194 48.8556L57.7151 48.8583L59.8475 52.2425ZM58.7649 52.9256L59.8485 52.2419L57.7141 48.8589L56.6306 49.5426L58.7649 52.9256ZM58.8071 52.8982L58.8071 52.8982L56.5883 49.57L56.5883 49.57L58.8071 52.8982ZM38.9111 65.49L58.7672 52.9241L56.6282 49.5441L36.7721 62.11L38.9111 65.49ZM19.4267 59.1921L37.1544 65.6782L38.5288 61.9217L20.8011 55.4356L19.4267 59.1921ZM19.4056 59.1843L19.4268 59.1921L20.8011 55.4356L20.7799 55.4278L19.4056 59.1843ZM21.0277 59.0742L21.0475 59.0634L19.1379 55.5487L19.1181 55.5595L21.0277 59.0742ZM18.9309 60.2134L21.0277 59.0742L19.1181 55.5595L17.0213 56.6987L18.9309 60.2134ZM19.7134 57.5691C20.2276 58.5153 19.8773 59.6992 18.931 60.2134L17.0213 56.6987C16.0265 57.2392 15.6582 58.4839 16.1987 59.4787L19.7134 57.5691ZM17.069 56.7866C18.0152 56.2725 19.1992 56.6225 19.7135 57.5691L16.1987 59.4786C16.7393 60.4737 17.9841 60.8417 18.9787 60.3013L17.069 56.7866ZM19.146 55.6581L17.0691 56.7865L18.9787 60.3013L21.0556 59.1729L19.146 55.6581ZM38.5175 62.0241L20.788 55.5373L19.4136 59.2937L37.1431 65.7806L38.5175 62.0241ZM38.5406 62.0325L38.5175 62.0241L37.1432 65.7806L37.1663 65.789L38.5406 62.0325ZM36.8046 62.2077L36.7838 62.2209L38.9231 65.6007L38.9439 65.5875L36.8046 62.2077ZM56.6816 49.6286L36.8047 62.2076L38.9438 65.5876L58.8206 53.0087L56.6816 49.6286ZM56.6418 49.6545L56.6417 49.6545L58.8605 52.9827L58.8606 52.9827L56.6418 49.6545ZM57.7654 48.9449L56.684 49.6271L58.8183 53.0101L59.8997 52.3278L57.7654 48.9449ZM58.8144 47.4014C58.8234 47.4191 58.8938 47.625 58.7545 47.9805C58.6268 48.3063 58.3608 48.6371 57.9411 48.846L59.7239 52.4267C62.2977 51.1453 63.6095 48.0204 62.3842 45.5967L58.8144 47.4014ZM58.8293 47.4303L58.8295 47.4306L62.3692 45.5676L62.369 45.5673L58.8293 47.4303ZM58.4532 47.3721C58.7019 47.3907 58.8212 47.4413 58.8555 47.4598C58.8695 47.4674 58.8643 47.4667 58.8506 47.4531C58.836 47.4386 58.8253 47.4227 58.8202 47.4128L62.3781 45.5848C61.583 44.0372 60.0571 43.4809 58.7517 43.3832L58.4532 47.3721ZM56.2022 47.8192C57.1473 47.4545 57.9362 47.3334 58.4532 47.3721L58.7517 43.3832C57.4533 43.286 56.0501 43.5905 54.7624 44.0873L56.2022 47.8192ZM56.1957 47.8217L56.1961 47.8215L54.7686 44.0849L54.7683 44.085L56.1957 47.8217ZM43.6945 52.4358L56.1745 47.8296L54.7895 44.0771L42.3095 48.6832L43.6945 52.4358ZM44.8486 49.9312C45.2216 50.9416 44.7048 52.0629 43.6944 52.4358L42.3096 48.6832C41.2474 49.0751 40.704 50.254 41.0961 51.3163L44.8486 49.9312ZM42.3442 48.777C43.3544 48.4042 44.4757 48.9208 44.8486 49.9311L41.0961 51.3163C41.4882 52.3784 42.6669 52.9215 43.729 52.5296L42.3442 48.777ZM54.8248 44.1706L42.3441 48.777L43.7291 52.5296L56.2098 47.9232L54.8248 44.1706ZM54.8112 44.1757L54.8105 44.176L56.2241 47.9178L56.2248 47.9176L54.8112 44.1757ZM0.301779 52.6076L6.80178 63.0564L10.1982 60.9436L3.69822 50.4947L0.301779 52.6076ZM8.56141 44.3756L0.833207 49.9268L3.16679 53.1755L10.895 47.6244L8.56141 44.3756ZM23.6914 64.3815L11.4196 44.9327L8.03677 47.0672L20.3086 66.5161L23.6914 64.3815ZM15.4386 72.6244L23.1668 67.0732L20.8332 63.8244L13.105 69.3756L15.4386 72.6244ZM6.81646 63.0797L12.5883 72.0797L15.9553 69.9203L10.1835 60.9203L6.81646 63.0797Z" fill="url(#paint1_linear_61_91)"/>
</g>
<defs>
<linearGradient id="paint0_linear_61_91" x1="2" y1="16.075" x2="67.4682" y2="26.3781" gradientUnits="userSpaceOnUse">
<stop stop-color="#4FA8FA"/>
<stop offset="1" stop-color="#8A00CB"/>
</linearGradient>
<linearGradient id="paint1_linear_61_91" x1="2" y1="16.075" x2="67.4682" y2="26.3781" gradientUnits="userSpaceOnUse">
<stop stop-color="#4FA8FA"/>
<stop offset="1" stop-color="#8A00CB"/>
</linearGradient>
<clipPath id="clip0_61_91">
<rect width="69" height="69" fill="white" transform="translate(0 0.5)"/>
</clipPath>
</defs>
</svg>
